<?xml version="1.0" encoding="UTF-8" standalone="no"?>
<!DOCTYPE svg PUBLIC "-//W3C//DTD SVG 1.1//EN" "http://www.w3.org/Graphics/SVG/1.1/DTD/svg11.dtd">
<svg width="100%" height="100%" viewBox="0 0 131 114" version="1.1" xmlns="http://www.w3.org/2000/svg" xmlns:xlink="http://www.w3.org/1999/xlink" xml:space="preserve" xmlns:serif="http://www.serif.com/" style="fill-rule:evenodd;clip-rule:evenodd;stroke-linecap:square;stroke-linejoin:round;stroke-miterlimit:1.5;">
    <g transform="matrix(1,0,0,1,-1516.7,-524.007)">
        <g transform="matrix(0.915809,0,0,0.915809,121.811,58.8935)">
            <g id="Game-Dev" serif:id="Game Dev">
                <path d="M1528.05,615.35L1593.55,558.462L1660.37,615.35L1664.48,615.221L1661.73,622.605C1661.6,623 1661.46,623.387 1661.3,623.764L1661.3,623.764C1659.32,628.363 1654.75,631.587 1649.44,631.587C1644.82,631.587 1640.77,629.156 1638.49,625.506L1638.49,625.506C1638.32,625.238 1638.16,624.962 1638.01,624.681L1623.5,599.397C1621.29,601.626 1618.22,603.007 1614.84,603.007C1609,603.007 1604.12,598.909 1602.91,593.437L1585.76,593.437C1584.55,598.909 1579.66,603.007 1573.83,603.007C1570.87,603.007 1568.16,601.953 1566.05,600.2L1549.93,625.506C1547.65,629.156 1543.6,631.587 1538.99,631.587C1533.67,631.587 1529.1,628.365 1527.13,623.769L1527.13,623.769L1527.13,623.769C1526.96,623.388 1526.82,622.999 1526.69,622.601L1523.94,615.221L1528.05,615.35Z" style="fill:url(#_Linear1);"/>
            </g>
        </g>
        <g transform="matrix(0.824955,0,0,0.623038,271.054,214.785)">
            <path d="M1588.87,543.109C1588.85,530.029 1591.78,517.701 1599.25,506.529" style="fill:none;stroke:rgb(129,79,129);stroke-width:12.31px;"/>
        </g>
        <g transform="matrix(0.977563,0,0,0.977563,26.5902,14.2995)">
            <path d="M1601.6,558.932L1610.91,558.932C1615.4,554.19 1621.76,551.231 1628.8,551.231C1641.37,551.231 1651.75,560.652 1653.27,572.81L1653.27,572.808L1653.28,572.864C1653.33,573.297 1653.37,573.733 1653.4,574.173L1657.41,616.057L1657.41,616.057C1657.47,616.571 1657.51,617.094 1657.51,617.625C1657.51,624.608 1651.84,630.277 1644.85,630.277C1640.33,630.277 1636.35,627.892 1634.11,624.312L1634.11,624.311C1633.95,624.048 1633.79,623.778 1633.65,623.502L1619.41,598.696C1617.24,600.882 1614.23,602.237 1610.91,602.237C1605.19,602.237 1600.39,598.217 1599.21,592.848L1582.85,592.848C1581.66,598.217 1576.87,602.237 1571.15,602.237C1568.25,602.237 1565.59,601.203 1563.51,599.484L1547.7,624.312C1545.47,627.892 1541.49,630.277 1536.96,630.277C1529.98,630.277 1524.31,624.608 1524.31,617.625C1524.31,617.094 1524.34,616.571 1524.41,616.057L1524.41,616.057L1528.41,574.229C1528.44,573.752 1528.49,573.278 1528.55,572.809L1528.55,572.808C1530.06,560.65 1540.45,551.231 1553.01,551.231C1560.06,551.231 1566.41,554.19 1570.91,558.932L1580.14,558.932L1582.12,561.391L1599.61,561.391L1601.6,558.932ZM1567.84,578.741C1563.02,580.127 1559.44,584.464 1559.18,589.669C1557.3,590.515 1555.21,590.986 1553.01,590.986C1544.68,590.986 1537.92,584.222 1537.92,575.89C1537.92,567.559 1544.68,560.794 1553.01,560.794C1561.35,560.794 1568.11,567.559 1568.11,575.89C1568.11,576.864 1568.02,577.817 1567.84,578.741ZM1622.88,589.778C1622.67,584.432 1618.95,579.983 1613.96,578.67C1613.8,577.77 1613.71,576.84 1613.71,575.89C1613.71,567.559 1620.47,560.794 1628.8,560.794C1637.13,560.794 1643.9,567.559 1643.9,575.89C1643.9,584.222 1637.13,590.986 1628.8,590.986C1626.7,590.986 1624.7,590.556 1622.88,589.778ZM1628.8,579.59C1630.9,579.59 1632.6,581.29 1632.6,583.384C1632.6,585.478 1630.9,587.178 1628.8,587.178C1626.71,587.178 1625.01,585.478 1625.01,583.384C1625.01,581.29 1626.71,579.59 1628.8,579.59ZM1561.31,577.925L1554.81,577.925L1554.81,584.422L1550.74,584.422L1550.74,577.925L1544.24,577.925L1544.24,573.855L1550.74,573.855L1550.74,567.358L1554.81,567.358L1554.81,573.855L1561.31,573.855L1561.31,577.925ZM1621.4,572.19C1623.5,572.19 1625.2,573.89 1625.2,575.984C1625.2,578.078 1623.5,579.778 1621.4,579.778C1619.31,579.778 1617.61,578.078 1617.61,575.984C1617.61,573.89 1619.31,572.19 1621.4,572.19ZM1636.2,572.19C1638.3,572.19 1640,573.89 1640,575.984C1640,578.078 1638.3,579.778 1636.2,579.778C1634.11,579.778 1632.41,578.078 1632.41,575.984C1632.41,573.89 1634.11,572.19 1636.2,572.19ZM1628.8,564.791C1630.9,564.791 1632.6,566.491 1632.6,568.585C1632.6,570.679 1630.9,572.379 1628.8,572.379C1626.71,572.379 1625.01,570.679 1625.01,568.585C1625.01,566.491 1626.71,564.791 1628.8,564.791Z" style="fill:url(#_Linear2);"/>
        </g>
    </g>
    <defs>
        <linearGradient id="_Linear1" x1="0" y1="0" x2="1" y2="0" gradientUnits="userSpaceOnUse" gradientTransform="matrix(129.863,0,0,73.1258,1523.94,595.024)"><stop offset="0" style="stop-color:rgb(102,39,52);stop-opacity:1"/><stop offset="1" style="stop-color:rgb(81,30,42);stop-opacity:1"/></linearGradient>
        <linearGradient id="_Linear2" x1="0" y1="0" x2="1" y2="0" gradientUnits="userSpaceOnUse" gradientTransform="matrix(124.819,55.4683,-35.5903,80.0883,1529.81,555.11)"><stop offset="0" style="stop-color:rgb(234,76,76);stop-opacity:1"/><stop offset="1" style="stop-color:rgb(191,35,83);stop-opacity:1"/></linearGradient>
    </defs>
</svg>
